<?xml version="1.0" encoding="utf-8"?>
<!-- Generator: Adobe Illustrator 15.0.0, SVG Export Plug-In . SVG Version: 6.00 Build 0)  -->
<!DOCTYPE svg PUBLIC "-//W3C//DTD SVG 1.1//EN" "http://www.w3.org/Graphics/SVG/1.1/DTD/svg11.dtd">
<svg version="1.1"
	 id="Слой_1" image-rendering="optimizeQuality" shape-rendering="geometricPrecision" text-rendering="geometricPrecision"
	 xmlns="http://www.w3.org/2000/svg" xmlns:xlink="http://www.w3.org/1999/xlink" x="0px" y="0px" width="110.551px"
	 height="110.551px" viewBox="0 0 110.551 110.551" enable-background="new 0 0 110.551 110.551" xml:space="preserve">
<path fill="#CCCCCC" fill-opacity="0.702" d="M106.299,55.276c0-28.175-22.849-51.022-51.022-51.022S4.252,27.101,4.252,55.276
	s22.849,51.023,51.022,51.023S106.299,83.45,106.299,55.276L106.299,55.276z"/>
<linearGradient id="SVGID_1_" gradientUnits="userSpaceOnUse" x1="-136.656" y1="112.2659" x2="-136.656" y2="77.2659" gradientTransform="matrix(2.8346 0 0 -2.8346 442.6461 323.9032)">
	<stop  offset="0" style="stop-color:#FFFFFF"/>
	<stop  offset="0.0588" style="stop-color:#F2F2F2"/>
	<stop  offset="0.149" style="stop-color:#CCCCCC"/>
	<stop  offset="0.1804" style="stop-color:#ADADAD"/>
	<stop  offset="0.2706" style="stop-color:#737373"/>
	<stop  offset="0.3804" style="stop-color:#5E5E5E"/>
	<stop  offset="0.4588" style="stop-color:#616161"/>
	<stop  offset="0.5804" style="stop-color:#757575"/>
	<stop  offset="0.6902" style="stop-color:#80868B"/>
	<stop  offset="0.8118" style="stop-color:#757678"/>
	<stop  offset="0.902" style="stop-color:#696969"/>
	<stop  offset="1" style="stop-color:#A6A6A6"/>
</linearGradient>
<path fill="url(#SVGID_1_)" d="M104.882,55.276c0-27.393-22.215-49.605-49.605-49.605c-27.392,0-49.607,22.213-49.607,49.605
	s22.215,49.606,49.605,49.606C82.666,104.882,104.882,82.667,104.882,55.276z"/>
<linearGradient id="SVGID_2_" gradientUnits="userSpaceOnUse" x1="-136.6565" y1="79.4934" x2="-136.6565" y2="110.0364" gradientTransform="matrix(2.8346 0 0 -2.8346 442.6461 323.9032)">
	<stop  offset="0" style="stop-color:#D4D4D4"/>
	<stop  offset="0.102" style="stop-color:#C4C4C4"/>
	<stop  offset="0.349" style="stop-color:#383838"/>
	<stop  offset="0.8118" style="stop-color:#BDBDBD"/>
	<stop  offset="1" style="stop-color:#4F4F4F"/>
</linearGradient>
<path fill="url(#SVGID_2_)" d="M98.565,55.276c0-23.903-19.384-43.288-43.288-43.288S11.988,31.371,11.988,55.276
	c0,23.905,19.385,43.289,43.288,43.289C79.18,98.565,98.565,79.18,98.565,55.276z"/>
<path fill="#333333" fill-opacity="0.502" d="M96.286,55.276c0-22.646-18.365-41.011-41.011-41.011
	c-22.646,0-41.011,18.365-41.011,41.011S32.63,96.286,55.276,96.286C77.922,96.286,96.286,77.921,96.286,55.276z"/>
<linearGradient id="SVGID_3_" gradientUnits="userSpaceOnUse" x1="-136.6565" y1="80.5872" x2="-136.6565" y2="108.9426" gradientTransform="matrix(2.8346 0 0 -2.8346 442.6461 323.9032)">
	<stop  offset="0" style="stop-color:#E5E5E5"/>
	<stop  offset="0.502" style="stop-color:#999999"/>
	<stop  offset="1" style="stop-color:#FFFFFF"/>
</linearGradient>
<path fill="url(#SVGID_3_)" d="M95.465,55.276c0-22.191-17.997-40.188-40.188-40.188c-22.192,0-40.19,17.996-40.19,40.188
	c0,22.193,17.997,40.189,40.188,40.189C77.467,95.465,95.465,77.468,95.465,55.276L95.465,55.276z"/>
<g id="_72872688">
	<path id="_72872592" fill="#616100" d="M49.987,58.928c1.44-5.145,5.105-7.551,8.418-10.535c3.208-2.891,7.375-8.975,3.348-15.432
		c-4.103-6.425-11.382-5.279-15.377-3.629c-4.113,1.707-7.787,3.915-13.05,3.004C41.98,37.02,50.469,54.599,49.987,58.928
		L49.987,58.928z"/>
	<path id="_72872664" fill="#616100" d="M45.9,61.612c-0.192-4.875-4.862-14.279-10.414-21.019c-3.97-4.807-7.322-6.942-8.841-6.005
		c1.015-0.628,3.346-2.093,4.361-2.723c1.519-0.94,4.871,1.201,8.845,6.003c5.558,6.735,10.218,16.146,10.414,21.018
		c0.054,1.401-0.261,2.271-0.87,2.65c-1.018,0.629-3.344,2.094-4.364,2.724C45.639,63.88,45.956,63.008,45.9,61.612z"/>
</g>
<polygon fill="#4A0000" points="31.865,33.899 26.677,37.081 42.491,62.49 48.19,59.69 "/>
<linearGradient id="SVGID_4_" gradientUnits="userSpaceOnUse" x1="-135.1873" y1="94.9065" x2="-141.8638" y2="106.352" gradientTransform="matrix(2.8346 0 0 -2.8346 442.6461 323.9032)">
	<stop  offset="0" style="stop-color:#570000"/>
	<stop  offset="0.2" style="stop-color:#570000"/>
	<stop  offset="0.4902" style="stop-color:#C8A812"/>
	<stop  offset="1" style="stop-color:#F0ED27"/>
</linearGradient>
<path fill="url(#SVGID_4_)" d="M48.942,58.97c1.441-5.144,5.106-7.551,8.418-10.534c3.209-2.892,7.375-8.976,3.348-15.433
	c-4.103-6.424-11.382-5.278-15.377-3.628c-4.113,1.707-7.787,3.915-13.05,3.003C40.936,37.063,49.425,54.642,48.942,58.97
	L48.942,58.97z"/>
<linearGradient id="SVGID_5_" gradientUnits="userSpaceOnUse" x1="-147.7244" y1="101.4797" x2="-138.7923" y2="92.5477" gradientTransform="matrix(2.8346 0 0 -2.8346 442.6461 323.9032)">
	<stop  offset="0" style="stop-color:#4F0D00"/>
	<stop  offset="0.4784" style="stop-color:#FDFF1F"/>
	<stop  offset="1" style="stop-color:#FDFF1F"/>
</linearGradient>
<path fill="url(#SVGID_5_)" d="M26.129,35.095l4.348-2.987c-0.59,0.366-0.901,1.221-0.849,2.588
	c0.193,4.779,4.762,13.996,10.208,20.593c3.889,4.711,7.171,6.81,8.665,5.892l-4.352,2.984c-1.483,0.93-4.773-1.172-8.661-5.882
	c-5.444-6.597-10.014-15.819-10.204-20.599C25.224,36.318,25.538,35.465,26.129,35.095z"/>
<linearGradient id="SVGID_6_" gradientUnits="userSpaceOnUse" x1="-139.134" y1="92.0198" x2="-145.7642" y2="103.3857" gradientTransform="matrix(2.8346 0 0 -2.8346 442.6461 323.9032)">
	<stop  offset="0" style="stop-color:#4F0D00"/>
	<stop  offset="0.6706" style="stop-color:#FDFF1F"/>
	<stop  offset="0.902" style="stop-color:#A88210"/>
	<stop  offset="1" style="stop-color:#A88210"/>
</linearGradient>
<path fill="url(#SVGID_6_)" d="M44.856,61.655c-0.192-4.875-4.863-14.279-10.414-21.019c-3.971-4.807-7.322-6.942-8.841-6.005
	c1.014-0.628,3.345-2.094,4.36-2.724c1.519-0.94,4.872,1.201,8.845,6.004c5.559,6.734,10.219,16.146,10.415,21.017
	c0.054,1.401-0.262,2.271-0.87,2.65c-1.019,0.63-3.345,2.095-4.364,2.725C44.595,63.922,44.911,63.05,44.856,61.655z"/>
<radialGradient id="SVGID_7_" cx="-145.2014" cy="97.55" r="2.5082" gradientTransform="matrix(2.8346 0 0 -2.8346 442.6461 323.9032)" gradientUnits="userSpaceOnUse">
	<stop  offset="0" style="stop-color:#FFFF00"/>
	<stop  offset="0.0118" style="stop-color:#FFFF00"/>
	<stop  offset="1" style="stop-color:#883D01"/>
	<stop  offset="1" style="stop-color:#883D01"/>
</radialGradient>
<circle fill="url(#SVGID_7_)" cx="33.802" cy="50.137" r="5.097"/>
<path fill="#E8D61A" d="M44.85,61.67c-0.172-4.906-4.799-14.36-10.338-21.109c-3.963-4.818-7.317-6.955-8.85-5.992
	c-0.615,0.38-0.938,1.266-0.89,2.668c0.096,2.821,1.667,7.149,4.038,11.591c0.104-0.356,0.256-0.71,0.44-1.041
	c-1.793-3.481-3.022-6.737-3.234-8.893c-0.118-1.195,0.088-1.929,0.551-2.221c1.16-0.725,3.946,1.288,7.355,5.619
	c4.785,6.059,9.006,14.366,9.419,18.554c0.115,1.197-0.087,1.921-0.547,2.216c-1.162,0.727-3.943-1.287-7.362-5.617
	c-0.526-0.667-1.043-1.367-1.553-2.077c-0.352,0.02-0.702,0.015-1.057-0.035c0.74,1.041,1.499,2.061,2.286,3.01
	c3.962,4.821,7.313,6.959,8.854,6.002C44.571,63.957,44.892,63.081,44.85,61.67z"/>
<path fill="#5C0000" d="M69.031,49.746c10.174,0,18.425,8.251,18.425,18.426c0,10.174-8.251,18.425-18.425,18.425
	s-18.425-8.251-18.425-18.425C50.607,57.997,58.858,49.746,69.031,49.746z"/>
<linearGradient id="SVGID_8_" gradientUnits="userSpaceOnUse" x1="-131.8035" y1="83.9426" x2="-131.8035" y2="96.4885" gradientTransform="matrix(2.8346 0 0 -2.8346 442.6461 323.9032)">
	<stop  offset="0" style="stop-color:#F0F0F0"/>
	<stop  offset="0.502" style="stop-color:#C8C8C8"/>
	<stop  offset="1" style="stop-color:#FFFFFF"/>
</linearGradient>
<path fill="url(#SVGID_8_)" d="M69.031,50.39c9.818,0,17.782,7.963,17.782,17.782c0,9.818-7.964,17.781-17.782,17.781
	S51.25,77.99,51.25,68.172C51.25,58.353,59.213,50.39,69.031,50.39z"/>
<linearGradient id="SVGID_9_" gradientUnits="userSpaceOnUse" x1="-131.8035" y1="84.1428" x2="-131.8035" y2="94.81" gradientTransform="matrix(2.8346 0 0 -2.8346 442.6461 323.9032)">
	<stop  offset="0" style="stop-color:#6E0000"/>
	<stop  offset="0.502" style="stop-color:#990000"/>
	<stop  offset="1" style="stop-color:#E60B00"/>
</linearGradient>
<path fill="url(#SVGID_9_)" d="M69.031,50.957c9.506,0,17.214,7.709,17.214,17.215s-7.708,17.214-17.214,17.214
	s-17.214-7.708-17.214-17.214S59.526,50.957,69.031,50.957z"/>
<path fill="#780000" fill-opacity="0.502" d="M69.031,50.548c4.866,0,9.272,1.973,12.462,5.162s5.162,7.596,5.162,12.462
	s-1.973,9.271-5.162,12.461s-7.596,5.163-12.462,5.163s-9.272-1.974-12.462-5.163c-3.188-3.189-5.162-7.595-5.162-12.461
	S53.381,58.9,56.57,55.71C59.759,52.521,64.165,50.548,69.031,50.548z M80.913,56.29c-3.041-3.041-7.242-4.923-11.882-4.923
	s-8.841,1.882-11.882,4.923s-4.923,7.242-4.923,11.882s1.882,8.841,4.923,11.882s7.242,4.922,11.882,4.922s8.841-1.881,11.882-4.922
	s4.923-7.242,4.923-11.882S83.954,59.331,80.913,56.29z"/>
<path fill-opacity="0.502" d="M58.689,61.073l3.243-3.244h0.001c0.27-0.27,0.625-0.404,0.979-0.404c0.353,0,0.708,0.135,0.978,0.404
	h0.002l0,0l15.482,15.483h0.001c0.269,0.27,0.404,0.625,0.404,0.979s-0.136,0.71-0.404,0.979h-0.001l-3.243,3.244H76.13
	c-0.27,0.271-0.625,0.405-0.979,0.405c-0.353,0-0.707-0.135-0.978-0.405h-0.002l0,0L58.689,63.031h-0.001
	c-0.269-0.269-0.404-0.624-0.404-0.979C58.283,61.698,58.419,61.342,58.689,61.073L58.689,61.073z M62.565,58.461l-3.244,3.244l0,0
	c-0.095,0.095-0.143,0.221-0.143,0.347c0,0.127,0.048,0.253,0.143,0.348l0,0l15.483,15.483l0,0l-0.001,0.001
	c0.095,0.094,0.222,0.142,0.348,0.142s0.253-0.048,0.348-0.143l0,0l3.244-3.244l0,0c0.095-0.096,0.143-0.222,0.143-0.348
	s-0.048-0.252-0.143-0.348l0,0L63.259,58.461l0,0l0.001-0.001c-0.095-0.095-0.221-0.142-0.348-0.142
	C62.786,58.319,62.659,58.365,62.565,58.461L62.565,58.461z"/>
<path fill-opacity="0.502" d="M61.932,78.515l-3.243-3.244h-0.001c-0.269-0.27-0.404-0.625-0.404-0.979
	c0-0.354,0.136-0.708,0.404-0.978v-0.002h0.001l15.482-15.483l0,0c0.27-0.27,0.625-0.404,0.979-0.404s0.71,0.135,0.979,0.404h0.001
	l3.243,3.244l0.001,0.001c0.269,0.269,0.404,0.624,0.404,0.979c0,0.354-0.136,0.708-0.404,0.979v0.001h-0.001L63.892,78.515l0,0
	c-0.27,0.271-0.625,0.405-0.979,0.405S62.202,78.785,61.932,78.515L61.932,78.515z M59.321,74.639l3.244,3.244l0,0
	c0.095,0.095,0.222,0.143,0.348,0.143s0.252-0.048,0.347-0.143l0,0L78.742,62.4l0,0l0.001,0.001
	c0.094-0.096,0.142-0.222,0.142-0.349c0-0.126-0.048-0.252-0.143-0.347l0,0l-3.244-3.244l0,0c-0.095-0.096-0.222-0.143-0.348-0.143
	s-0.252,0.047-0.347,0.143l0,0L59.321,73.944l0,0H59.32c-0.094,0.095-0.142,0.221-0.142,0.348
	C59.178,74.417,59.226,74.543,59.321,74.639L59.321,74.639z"/>
<linearGradient id="SVGID_10_" gradientUnits="userSpaceOnUse" x1="-131.8035" y1="86.55" x2="-131.8035" y2="93.8822" gradientTransform="matrix(2.8346 0 0 -2.8346 442.6461 323.9032)">
	<stop  offset="0" style="stop-color:#F0F0F0"/>
	<stop  offset="0.502" style="stop-color:#C8C8C8"/>
	<stop  offset="1" style="stop-color:#FFFFFF"/>
</linearGradient>
<path fill="url(#SVGID_10_)" d="M62.248,78.198l-3.244-3.243c-0.364-0.365-0.364-0.963,0-1.328l15.483-15.482
	c0.365-0.365,0.962-0.365,1.327,0l3.244,3.244c0.364,0.365,0.364,0.962,0,1.327L63.575,78.198
	C63.21,78.564,62.614,78.564,62.248,78.198z"/>
<linearGradient id="SVGID_11_" gradientUnits="userSpaceOnUse" x1="-131.8035" y1="86.55" x2="-131.8035" y2="93.8822" gradientTransform="matrix(2.8346 0 0 -2.8346 442.6461 323.9032)">
	<stop  offset="0" style="stop-color:#F0F0F0"/>
	<stop  offset="0.502" style="stop-color:#C8C8C8"/>
	<stop  offset="1" style="stop-color:#FFFFFF"/>
</linearGradient>
<path fill="url(#SVGID_11_)" d="M59.004,61.389l3.244-3.244c0.365-0.365,0.962-0.365,1.327,0l15.483,15.482
	c0.364,0.365,0.364,0.963,0,1.328l-3.244,3.243c-0.365,0.365-0.962,0.365-1.327,0L59.004,62.716
	C58.64,62.351,58.64,61.754,59.004,61.389z"/>
<path fill="#E5E5E5" fill-opacity="0.149" d="M55.031,15.088c20.486,0.148,33.964,16.469,35.063,24.696
	c1.101,10.154-15.298,19.781-34.531,19.78c-19.233,0-35.974-11.76-35.132-19.78C21.274,31.765,35.664,14.99,55.031,15.088
	L55.031,15.088z"/>
</svg>
