<?xml version="1.0" encoding="utf-8"?>
<!-- Generator: Adobe Illustrator 15.0.0, SVG Export Plug-In . SVG Version: 6.00 Build 0)  -->
<!DOCTYPE svg PUBLIC "-//W3C//DTD SVG 1.1//EN" "http://www.w3.org/Graphics/SVG/1.1/DTD/svg11.dtd">
<svg version="1.1"
	 id="Слой_1" image-rendering="optimizeQuality" shape-rendering="geometricPrecision" text-rendering="geometricPrecision"
	 xmlns="http://www.w3.org/2000/svg" xmlns:xlink="http://www.w3.org/1999/xlink" x="0px" y="0px" width="110.551px"
	 height="110.551px" viewBox="0 0 110.551 110.551" enable-background="new 0 0 110.551 110.551" xml:space="preserve">
<path fill="#CCCCCC" fill-opacity="0.702" d="M106.299,55.276c0-28.175-22.849-51.022-51.022-51.022S4.252,27.101,4.252,55.276
	s22.849,51.023,51.022,51.023S106.299,83.45,106.299,55.276L106.299,55.276z"/>
<linearGradient id="SVGID_1_" gradientUnits="userSpaceOnUse" x1="-136.656" y1="112.2659" x2="-136.656" y2="77.2659" gradientTransform="matrix(2.8346 0 0 -2.8346 442.6461 323.9032)">
	<stop  offset="0" style="stop-color:#FFFFFF"/>
	<stop  offset="0.0588" style="stop-color:#F2F2F2"/>
	<stop  offset="0.149" style="stop-color:#CCCCCC"/>
	<stop  offset="0.1804" style="stop-color:#ADADAD"/>
	<stop  offset="0.2706" style="stop-color:#737373"/>
	<stop  offset="0.3804" style="stop-color:#5E5E5E"/>
	<stop  offset="0.4588" style="stop-color:#616161"/>
	<stop  offset="0.5804" style="stop-color:#757575"/>
	<stop  offset="0.6902" style="stop-color:#80868B"/>
	<stop  offset="0.8118" style="stop-color:#757678"/>
	<stop  offset="0.902" style="stop-color:#696969"/>
	<stop  offset="1" style="stop-color:#A6A6A6"/>
</linearGradient>
<path fill="url(#SVGID_1_)" d="M104.882,55.276c0-27.393-22.215-49.605-49.605-49.605c-27.392,0-49.607,22.213-49.607,49.605
	s22.215,49.606,49.605,49.606C82.666,104.882,104.882,82.667,104.882,55.276z"/>
<linearGradient id="SVGID_2_" gradientUnits="userSpaceOnUse" x1="-136.6565" y1="79.4934" x2="-136.6565" y2="110.0364" gradientTransform="matrix(2.8346 0 0 -2.8346 442.6461 323.9032)">
	<stop  offset="0" style="stop-color:#D4D4D4"/>
	<stop  offset="0.102" style="stop-color:#C4C4C4"/>
	<stop  offset="0.349" style="stop-color:#383838"/>
	<stop  offset="0.8118" style="stop-color:#BDBDBD"/>
	<stop  offset="1" style="stop-color:#4F4F4F"/>
</linearGradient>
<path fill="url(#SVGID_2_)" d="M98.565,55.276c0-23.903-19.384-43.288-43.288-43.288S11.988,31.371,11.988,55.276
	c0,23.905,19.385,43.289,43.288,43.289C79.18,98.565,98.565,79.18,98.565,55.276z"/>
<path fill="#333333" fill-opacity="0.502" d="M96.286,55.276c0-22.646-18.365-41.011-41.011-41.011
	c-22.646,0-41.011,18.365-41.011,41.011S32.63,96.286,55.276,96.286C77.922,96.286,96.286,77.921,96.286,55.276z"/>
<linearGradient id="SVGID_3_" gradientUnits="userSpaceOnUse" x1="-136.6565" y1="80.5872" x2="-136.6565" y2="108.9426" gradientTransform="matrix(2.8346 0 0 -2.8346 442.6461 323.9032)">
	<stop  offset="0" style="stop-color:#E5E5E5"/>
	<stop  offset="0.502" style="stop-color:#999999"/>
	<stop  offset="1" style="stop-color:#FFFFFF"/>
</linearGradient>
<path fill="url(#SVGID_3_)" d="M95.465,55.276c0-22.191-17.997-40.188-40.188-40.188c-22.192,0-40.19,17.996-40.19,40.188
	c0,22.193,17.997,40.189,40.188,40.189C77.467,95.465,95.465,77.468,95.465,55.276L95.465,55.276z"/>
<g id="_72872688">
	<path id="_72872592" fill="#616100" d="M47.553,58.223c1.441-5.145,5.106-7.551,8.418-10.535c3.209-2.891,7.375-8.975,3.348-15.432
		c-4.103-6.424-11.381-5.278-15.376-3.628c-4.114,1.706-7.788,3.914-13.05,3.003C39.547,36.316,48.036,53.895,47.553,58.223z"/>
	<path id="_72872664" fill="#616100" d="M43.467,60.907c-0.192-4.876-4.862-14.28-10.414-21.02c-3.97-4.806-7.322-6.941-8.841-6.004
		c1.014-0.629,3.345-2.094,4.36-2.724c1.519-0.94,4.872,1.201,8.845,6.004c5.559,6.734,10.219,16.145,10.415,21.017
		c0.054,1.401-0.262,2.271-0.87,2.65c-1.018,0.63-3.345,2.095-4.364,2.724C43.206,63.175,43.523,62.303,43.467,60.907z"/>
</g>
<g id="_72872928">
	<path id="_72872760" fill="#616100" d="M60.68,84.235l-3.041-4.424c0.371,0.601,1.242,0.918,2.635,0.864
		c4.863-0.198,14.243-4.846,20.96-10.391c4.793-3.956,6.928-7.299,5.994-8.819l3.036,4.429c0.947,1.512-1.191,4.858-5.984,8.815
		c-6.714,5.541-16.098,10.193-20.964,10.387C61.923,85.156,61.057,84.837,60.68,84.235z"/>
	<path id="_72872832" fill="#616100" d="M87.535,65.264c-4.961,0.194-14.532,4.946-21.392,10.596
		c-4.891,4.042-7.066,7.452-6.111,8.997c-0.642-1.031-2.132-3.404-2.771-4.438c-0.958-1.546,1.221-4.959,6.109-9.002
		c6.854-5.656,16.432-10.397,21.389-10.599c1.427-0.054,2.312,0.268,2.697,0.887c0.641,1.037,2.131,3.402,2.771,4.442
		C89.841,65.531,88.954,65.208,87.535,65.264z"/>
	<path id="_72872904" fill="#616100" d="M84.977,61.018c-5.235-1.465-7.686-5.196-10.722-8.565
		c-2.941-3.266-9.134-7.507-15.705-3.408c-6.535,4.176-5.369,11.586-3.689,15.648c1.736,4.188,3.981,7.927,3.056,13.281
		C62.682,69.165,80.573,60.527,84.977,61.018z"/>
</g>
<polygon fill="#4A0000" points="57.085,78.495 60.324,83.776 86.183,67.681 82.941,62.275 "/>
<linearGradient id="SVGID_4_" gradientUnits="userSpaceOnUse" x1="-128.8201" y1="97.3918" x2="-137.0148" y2="89.8801" gradientTransform="matrix(2.8346 0 0 -2.8346 442.6461 323.9032)">
	<stop  offset="0" style="stop-color:#833500"/>
	<stop  offset="0.1294" style="stop-color:#833500"/>
	<stop  offset="0.3554" style="stop-color:#DBDB00"/>
	<stop  offset="0.4986" style="stop-color:#E3D900"/>
	<stop  offset="1" style="stop-color:#570000"/>
</linearGradient>
<path fill="url(#SVGID_4_)" d="M83.299,60.727c-5.235-1.465-7.686-5.196-10.721-8.565c-2.942-3.266-9.135-7.506-15.706-3.408
	c-6.535,4.177-5.37,11.586-3.689,15.649c1.736,4.188,3.981,7.926,3.056,13.281C61.004,68.874,78.895,60.237,83.299,60.727z"/>
<linearGradient id="SVGID_5_" gradientUnits="userSpaceOnUse" x1="-138.8372" y1="90.4856" x2="-130.9733" y2="95.4006" gradientTransform="matrix(2.8346 0 0 -2.8346 442.6461 323.9032)">
	<stop  offset="0.1101" style="stop-color:#732B00"/>
	<stop  offset="0.451" style="stop-color:#C8A812"/>
	<stop  offset="0.6706" style="stop-color:#DBDB00"/>
	<stop  offset="1" style="stop-color:#CCCC00"/>
</linearGradient>
<path fill="url(#SVGID_5_)" d="M56.368,49.213c-0.761,0.492-1.424,1.036-1.983,1.607c-3.355,4.155-2.604,10.651-0.641,14.884
	c1.844,3.966,3.065,7.295,3.511,10.248c3.335-4.332,9.367-8.461,14.865-11.28c-1.356-1.681-2.795-3.622-4.39-5.869
	C64.84,54.734,59.843,49.593,56.368,49.213z"/>
<linearGradient id="SVGID_6_" gradientUnits="userSpaceOnUse" x1="-136.2029" y1="84.5383" x2="-124.2285" y2="91.5234" gradientTransform="matrix(2.8346 0 0 -2.8346 442.6461 323.9032)">
	<stop  offset="0" style="stop-color:#4F0D00"/>
	<stop  offset="0.4902" style="stop-color:#FDFF1F"/>
	<stop  offset="0.8314" style="stop-color:#FDFF1F"/>
	<stop  offset="1" style="stop-color:#A88210"/>
</linearGradient>
<path fill="url(#SVGID_6_)" d="M59.002,83.944l-3.041-4.424c0.371,0.601,1.243,0.918,2.635,0.865
	c4.864-0.198,14.244-4.847,20.96-10.391c4.793-3.957,6.928-7.3,5.994-8.819l3.036,4.428c0.948,1.512-1.191,4.859-5.984,8.816
	c-6.714,5.541-16.098,10.192-20.964,10.386C60.245,84.865,59.379,84.546,59.002,83.944z"/>
<linearGradient id="SVGID_7_" gradientUnits="userSpaceOnUse" x1="-136.5037" y1="86.0598" x2="-126.481" y2="91.9063" gradientTransform="matrix(2.8346 0 0 -2.8346 442.6461 323.9032)">
	<stop  offset="0" style="stop-color:#6E1706"/>
	<stop  offset="0.7412" style="stop-color:#FDFF1F"/>
	<stop  offset="1" style="stop-color:#A88210"/>
</linearGradient>
<path fill="url(#SVGID_7_)" d="M86.032,64.886c-4.961,0.194-14.531,4.946-21.392,10.596c-4.891,4.042-7.066,7.452-6.11,8.998
	c-0.643-1.032-2.132-3.405-2.772-4.438c-0.958-1.546,1.221-4.959,6.109-9.002c6.854-5.656,16.432-10.398,21.389-10.599
	c1.427-0.055,2.312,0.268,2.697,0.886c0.641,1.037,2.132,3.403,2.772,4.443C88.338,65.153,87.451,64.83,86.032,64.886z"/>
<radialGradient id="SVGID_8_" cx="-130.7092" cy="88.2483" r="2.4616" gradientTransform="matrix(2.8346 0 0 -2.8346 442.6461 323.9032)" gradientUnits="userSpaceOnUse">
	<stop  offset="0" style="stop-color:#FFFF00"/>
	<stop  offset="0.0118" style="stop-color:#FFFF00"/>
	<stop  offset="1" style="stop-color:#883D01"/>
	<stop  offset="1" style="stop-color:#883D01"/>
</radialGradient>
<circle fill="url(#SVGID_8_)" cx="74.31" cy="76.135" r="5.187"/>
<path fill="#B09100" d="M86.046,64.892c-4.992,0.174-14.615,4.884-21.481,10.521c-4.904,4.033-7.08,7.447-6.099,9.007
	c0.384,0.625,1.287,0.954,2.715,0.907c2.872-0.098,7.276-1.696,11.796-4.108c-0.364-0.107-0.722-0.262-1.06-0.448
	c-3.544,1.825-6.856,3.074-9.051,3.291c-1.216,0.121-1.962-0.091-2.258-0.563c-0.738-1.181,1.31-4.017,5.719-7.485
	c6.167-4.871,14.622-9.167,18.883-9.586c1.218-0.12,1.955,0.088,2.255,0.557c0.74,1.182-1.31,4.014-5.716,7.493
	c-0.68,0.537-1.393,1.061-2.114,1.582c0.022,0.357,0.017,0.713-0.035,1.074c1.059-0.756,2.096-1.525,3.063-2.328
	c4.906-4.032,7.082-7.442,6.108-9.012C88.374,65.176,87.483,64.85,86.046,64.892z"/>
<polygon fill="#4A0000" points="29.432,33.194 24.243,36.376 40.058,61.786 45.756,58.986 "/>
<linearGradient id="SVGID_9_" gradientUnits="userSpaceOnUse" x1="-135.908" y1="94.9192" x2="-141.4012" y2="104.3361" gradientTransform="matrix(2.8346 0 0 -2.8346 442.6461 323.9032)">
	<stop  offset="0" style="stop-color:#570000"/>
	<stop  offset="0.2" style="stop-color:#570000"/>
	<stop  offset="0.4902" style="stop-color:#C8A812"/>
	<stop  offset="1" style="stop-color:#F0ED27"/>
</linearGradient>
<path fill="url(#SVGID_9_)" d="M46.509,58.266c1.44-5.145,5.106-7.551,8.418-10.535c3.208-2.891,7.375-8.976,3.348-15.433
	c-4.103-6.424-11.382-5.278-15.377-3.628c-4.113,1.707-7.787,3.915-13.05,3.004C38.502,36.358,46.992,53.937,46.509,58.266z"/>
<linearGradient id="SVGID_10_" gradientUnits="userSpaceOnUse" x1="-148.5823" y1="101.7288" x2="-139.6504" y2="92.7969" gradientTransform="matrix(2.8346 0 0 -2.8346 442.6461 323.9032)">
	<stop  offset="0" style="stop-color:#4F0D00"/>
	<stop  offset="0.4784" style="stop-color:#FDFF1F"/>
	<stop  offset="1" style="stop-color:#FDFF1F"/>
</linearGradient>
<path fill="url(#SVGID_10_)" d="M23.697,34.39l4.347-2.987c-0.589,0.366-0.9,1.221-0.849,2.589
	c0.193,4.779,4.762,13.995,10.209,20.593c3.888,4.711,7.17,6.809,8.664,5.891l-4.351,2.985c-1.484,0.93-4.774-1.173-8.662-5.882
	c-5.444-6.598-10.014-15.819-10.204-20.599C22.791,35.614,23.105,34.761,23.697,34.39z"/>
<linearGradient id="SVGID_11_" gradientUnits="userSpaceOnUse" x1="-140.0681" y1="92.3987" x2="-146.2912" y2="103.0668" gradientTransform="matrix(2.8346 0 0 -2.8346 442.6461 323.9032)">
	<stop  offset="0" style="stop-color:#4F0D00"/>
	<stop  offset="0.6706" style="stop-color:#FDFF1F"/>
	<stop  offset="0.902" style="stop-color:#A88210"/>
	<stop  offset="1" style="stop-color:#A88210"/>
</linearGradient>
<path fill="url(#SVGID_11_)" d="M42.423,60.949c-0.192-4.875-4.863-14.279-10.414-21.019c-3.971-4.807-7.323-6.942-8.842-6.005
	c1.015-0.628,3.346-2.093,4.361-2.723c1.519-0.941,4.872,1.201,8.845,6.003c5.558,6.735,10.218,16.146,10.415,21.018
	c0.053,1.401-0.262,2.271-0.871,2.649c-1.018,0.63-3.344,2.095-4.364,2.725C42.162,63.218,42.479,62.346,42.423,60.949z"/>
<radialGradient id="SVGID_12_" cx="-146.0603" cy="97.7981" r="2.4991" gradientTransform="matrix(2.8346 0 0 -2.8346 442.6461 323.9032)" gradientUnits="userSpaceOnUse">
	<stop  offset="0" style="stop-color:#FFFF00"/>
	<stop  offset="0.0118" style="stop-color:#FFFF00"/>
	<stop  offset="1" style="stop-color:#883D01"/>
	<stop  offset="1" style="stop-color:#883D01"/>
</radialGradient>
<circle fill="url(#SVGID_12_)" cx="31.369" cy="49.433" r="5.097"/>
<path fill="#E8DD1A" d="M42.417,60.965c-0.172-4.905-4.799-14.36-10.339-21.108c-3.962-4.818-7.316-6.955-8.849-5.993
	c-0.616,0.38-0.938,1.267-0.891,2.669c0.096,2.821,1.668,7.149,4.038,11.591c0.105-0.356,0.256-0.71,0.44-1.041
	c-1.793-3.481-3.021-6.737-3.234-8.894c-0.118-1.195,0.089-1.928,0.551-2.22c1.161-0.725,3.947,1.288,7.356,5.618
	c4.785,6.059,9.006,14.367,9.419,18.554c0.115,1.198-0.088,1.922-0.548,2.217c-1.161,0.727-3.943-1.288-7.362-5.618
	c-0.525-0.667-1.043-1.367-1.553-2.077c-0.352,0.02-0.701,0.016-1.056-0.034c0.74,1.041,1.499,2.06,2.285,3.009
	c3.963,4.821,7.313,6.959,8.855,6.003C42.137,63.252,42.458,62.376,42.417,60.965z"/>
<path fill="#E5E5E5" fill-opacity="0.149" d="M55.031,15.088c20.486,0.148,33.964,16.469,35.063,24.696
	c1.101,10.154-15.298,19.781-34.531,19.78c-19.233,0-35.974-11.76-35.132-19.78C21.274,31.765,35.664,14.99,55.031,15.088
	L55.031,15.088z"/>
</svg>
