<?xml version="1.0" encoding="UTF-8"?>
<!DOCTYPE svg PUBLIC "-//W3C//DTD SVG 1.1//EN" "http://www.w3.org/Graphics/SVG/1.1/DTD/svg11.dtd">
<!-- Creator: CorelDRAW -->
<svg xmlns="http://www.w3.org/2000/svg" xml:space="preserve" width="39mm" height="39mm" shape-rendering="geometricPrecision" text-rendering="geometricPrecision" image-rendering="optimizeQuality" fill-rule="evenodd" clip-rule="evenodd"
viewBox="0 0 39 39"
 xmlns:xlink="http://www.w3.org/1999/xlink"
 zoomAndPan="magnify"
 baseProfile="tiny"
 contentStyleType="text/css"
 version="1.1">
 <defs>
   <linearGradient id="id0" gradientUnits="userSpaceOnUse" x1="19.5" y1="2.0002" x2="19.5" y2="37">
    <stop offset="0" stop-color="white"/>
    <stop offset="0.0588235" stop-color="#F2F2F2"/>
    <stop offset="0.14902" stop-color="#CCCCCC"/>
    <stop offset="0.180392" stop-color="#ADADAD"/>
    <stop offset="0.270588" stop-color="#737373"/>
    <stop offset="0.380392" stop-color="#5E5E5E"/>
    <stop offset="0.458824" stop-color="#616161"/>
    <stop offset="0.580392" stop-color="#757575"/>
    <stop offset="0.690196" stop-color="#80868B"/>
    <stop offset="0.811765" stop-color="#757678"/>
    <stop offset="0.901961" stop-color="dimgray"/>
    <stop offset="1" stop-color="#A6A6A6"/>
   </linearGradient>
   <linearGradient id="id1" gradientUnits="userSpaceOnUse" x1="19.5002" y1="34.7714" x2="19.5002" y2="4.2288">
    <stop offset="0" stop-color="#D4D4D4"/>
    <stop offset="0.101961" stop-color="#C4C4C4"/>
    <stop offset="0.34902" stop-color="#383838"/>
    <stop offset="0.811765" stop-color="#BDBDBD"/>
    <stop offset="1" stop-color="#4F4F4F"/>
   </linearGradient>
   <linearGradient id="id2" gradientUnits="userSpaceOnUse" x1="19.5" y1="33.6778" x2="19.5" y2="5.3224">
    <stop offset="0" stop-color="#E5E5E5"/>
    <stop offset="0.501961" stop-color="#999999"/>
    <stop offset="1" stop-color="white"/>
   </linearGradient>
    <linearGradient id="id3" gradientUnits="userSpaceOnUse" x1="19.5567" y1="9.3864" x2="19.5567" y2="14.713">
     <stop offset="0" stop-color="black"/>
     <stop offset="0.501961" stop-color="black"/>
     <stop offset="1" stop-color="#7F7F7F"/>
    </linearGradient>
   <linearGradient id="id4" gradientUnits="userSpaceOnUse" x1="19.5566" y1="10.3815" x2="19.5566" y2="8.3775">
    <stop offset="0" stop-color="black"/>
    <stop offset="0.501961" stop-color="black"/>
    <stop offset="1" stop-color="#7F7F7F"/>
   </linearGradient>
   <linearGradient id="id5" gradientUnits="userSpaceOnUse" x1="26.3372" y1="15.8337" x2="26.3372" y2="8.7867">
    <stop offset="0" stop-color="black"/>
    <stop offset="0.501961" stop-color="black"/>
    <stop offset="1" stop-color="#7F7F7F"/>
   </linearGradient>
   <linearGradient id="id6" gradientUnits="userSpaceOnUse" x1="12.7769" y1="15.8337" x2="12.7769" y2="8.7873">
    <stop offset="0" stop-color="black"/>
    <stop offset="0.501961" stop-color="black"/>
    <stop offset="1" stop-color="#7F7F7F"/>
   </linearGradient>
   <linearGradient id="id7" gradientUnits="userSpaceOnUse" x1="14" y1="30.8756" x2="14" y2="27.8756">
    <stop offset="0" stop-color="black"/>
    <stop offset="0.501961" stop-color="black"/>
    <stop offset="1" stop-color="#7F7F7F"/>
   </linearGradient>
   <linearGradient id="id8" gradientUnits="userSpaceOnUse" x1="25" y1="30.8756" x2="25" y2="27.8756">
    <stop offset="0" stop-color="black"/>
    <stop offset="0.501961" stop-color="black"/>
    <stop offset="1" stop-color="#7F7F7F"/>
   </linearGradient>
   <linearGradient id="id9" gradientUnits="userSpaceOnUse" x1="19.5566" y1="11.6463" x2="19.5566" y2="30.1519">
    <stop offset="0" stop-color="#EC1C24"/>
    <stop offset="1" stop-color="#B01117"/>
   </linearGradient>
   <linearGradient id="id10" gradientUnits="userSpaceOnUse" x1="19.557" y1="21.0017" x2="19.557" y2="13.3141">
    <stop offset="0" stop-color="#D4D3C4"/>
    <stop offset="1" stop-color="#DDDBCB"/>
   </linearGradient>
   <linearGradient id="id11" gradientUnits="userSpaceOnUse" x1="19.5566" y1="13.9856" x2="19.5566" y2="28.4852">
    <stop offset="0" stop-color="#FFFCE8"/>
    <stop offset="1" stop-color="#DDDBCB"/>
   </linearGradient>
   <linearGradient id="id12" gradientUnits="userSpaceOnUse" x1="19.5566" y1="15.291" x2="19.5566" y2="14.1332">
    <stop offset="0" stop-color="black"/>
    <stop offset="0.501961" stop-color="black"/>
    <stop offset="1" stop-color="#7F7F7F"/>
   </linearGradient>
   <linearGradient id="id13" gradientUnits="userSpaceOnUse" x1="19.5566" y1="21.6212" x2="19.5566" y2="20.1752">
    <stop offset="0" stop-color="black"/>
    <stop offset="0.501961" stop-color="black"/>
    <stop offset="1" stop-color="#7F7F7F"/>
   </linearGradient>
   <linearGradient id="id14" gradientUnits="userSpaceOnUse" x1="19.5566" y1="27.6641" x2="19.5566" y2="26.5063">
    <stop offset="0" stop-color="black"/>
    <stop offset="0.501961" stop-color="black"/>
    <stop offset="1" stop-color="#7F7F7F"/>
   </linearGradient>
   <linearGradient id="id15" gradientUnits="userSpaceOnUse" x1="13.3696" y1="21.4771" x2="13.3696" y2="20.3211">
    <stop offset="0" stop-color="black"/>
    <stop offset="0.501961" stop-color="black"/>
    <stop offset="1" stop-color="#7F7F7F"/>
   </linearGradient>
   <linearGradient id="id16" gradientUnits="userSpaceOnUse" x1="25.7427" y1="21.4771" x2="25.7427" y2="20.3211">
    <stop offset="0" stop-color="black"/>
    <stop offset="0.501961" stop-color="black"/>
    <stop offset="1" stop-color="#7F7F7F"/>
   </linearGradient>
   <linearGradient id="id17" gradientUnits="userSpaceOnUse" x1="17.5973" y1="24.3306" x2="17.5973" y2="21.386">
    <stop offset="0" stop-color="black"/>
    <stop offset="0.501961" stop-color="black"/>
    <stop offset="1" stop-color="#7F7F7F"/>
   </linearGradient>
   <linearGradient id="id18" gradientUnits="userSpaceOnUse" x1="16.8087" y1="20.4122" x2="16.8087" y2="15.888">
    <stop offset="0" stop-color="black"/>
    <stop offset="0.501961" stop-color="black"/>
    <stop offset="1" stop-color="#7F7F7F"/>
   </linearGradient>
   <linearGradient id="id19" gradientUnits="userSpaceOnUse" x1="22.911" y1="18.4117" x2="22.911" y2="20.6413">
    <stop offset="0" stop-color="#EC1C24"/>
    <stop offset="1" stop-color="#B01117"/>
   </linearGradient>
   <linearGradient id="id20" gradientUnits="userSpaceOnUse" x1="27.1336" y1="21.119" x2="27.1426" y2="21.119">
    <stop offset="0" stop-color="white"/>
    <stop offset="1" stop-color="#DBDCDD"/>
   </linearGradient>
   <linearGradient id="id21" gradientUnits="userSpaceOnUse" x1="11.9709" y1="21.119" x2="11.9789" y2="21.119">
    <stop offset="0" stop-color="white"/>
    <stop offset="1" stop-color="#DBDCDD"/>
   </linearGradient>
 </defs>
 <g id="Слой_x0020_1">
  <metadata id="CorelCorpID_0Corel-Layer"/>
  <path fill="#CCCCCC" fill-opacity="0.701961" d="M37.5 19.5001c0,-9.9395 -8.0607,-17.9997 -17.9997,-17.9997 -9.9391,0 -18.0003,8.0602 -18.0003,17.9997 0,9.9395 8.0607,17.9997 17.9997,17.9997 9.9391,0 18.0003,-8.0605 18.0003,-17.9997l0 0z"/>
  <path fill="url(#id0)" d="M37.0001 19.5001c0,-9.6636 -7.8369,-17.4999 -17.4998,-17.4999 -9.663,0 -17.5004,7.8363 -17.5004,17.4999 0,9.6633 7.8369,17.4999 17.4998,17.4999 9.663,0 17.5004,-7.837 17.5004,-17.4999z"/>
  <path fill="url(#id1)" d="M34.7716 19.5001c0,-8.4328 -6.8385,-15.2713 -15.2713,-15.2713 -8.4328,0 -15.2715,6.8382 -15.2715,15.2713 0,8.4331 6.8385,15.2713 15.2713,15.2713 8.4328,0 15.2715,-6.8385 15.2715,-15.2713z"/>
  <path fill="#333333" fill-opacity="0.501961" d="M33.9676 19.5001c0,-7.9891 -6.4788,-14.4677 -14.4677,-14.4677 -7.989,0 -14.4675,6.4788 -14.4675,14.4677 0,7.9889 6.4788,14.4675 14.4677,14.4675 7.989,0 14.4675,-6.4788 14.4675,-14.4675z"/>
  <path fill="url(#id2)" d="M33.678 19.5001c0,-7.8288 -6.3489,-14.1777 -14.1777,-14.1777 -7.8288,0 -14.1783,6.3485 -14.1783,14.1777 0,7.8292 6.3489,14.1777 14.1777,14.1777 7.8288,0 14.1783,-6.3488 14.1783,-14.1777l0 0z"/>
  <circle fill="#666666" cx="19.8" cy="20.7" r="9.2528"/>
  <g id="_73903472">
   <g id="_175415928">
    <polygon id="_175415952" fill="#666666" points="19.441,14.4864 20.1591,14.4864 20.1591,9.1598 19.441,9.1598 "/>
   </g>
   <circle id="_73903112" fill="#666666" cx="19.7999" cy="9.1529" r="1.002"/>
   <path id="_73902992" fill="#666666" d="M22.5511 10.8783c1.3054,-1.8639 3.8747,-2.3182 5.7401,-1.0119 1.8648,1.3054 2.3188,3.8778 1.0134,5.7407l-6.7535 -4.7288z"/>
   <path id="_73891904" fill="#666666" d="M10.2961 15.6071c-1.3054,-1.8639 -0.8536,-4.4338 1.0119,-5.7401 1.8654,-1.3063 4.4372,-0.8545 5.7416,1.0104l-6.7535 4.7297z"/>
   <circle id="_175415640" fill="#666666" cx="14.2433" cy="29.149" r="1.5"/>
   <circle id="_175415568" fill="#666666" cx="25.2433" cy="29.149" r="1.5"/>
  </g>
  <g id="_175415928_0">
   <polygon id="_175415952_1" fill="url(#id3)" points="19.1977,14.713 19.9158,14.713 19.9158,9.3864 19.1977,9.3864 "/>
  </g>
  <circle fill="url(#id4)" cx="19.5566" cy="9.3795" r="1.002"/>
  <path fill="url(#id5)" d="M22.3078 11.1049c1.3054,-1.8639 3.8747,-2.3182 5.7401,-1.0119 1.8648,1.3054 2.3188,3.8778 1.0134,5.7407l-6.7535 -4.7288z"/>
  <path fill="url(#id6)" d="M10.0528 15.8337c-1.3054,-1.8639 -0.8536,-4.4338 1.0119,-5.7401 1.8654,-1.3063 4.4372,-0.8545 5.7416,1.0104l-6.7535 4.7297z"/>
  <circle id="_175415640_2" fill="url(#id7)" cx="14" cy="29.3756" r="1.5"/>
  <circle id="_175415568_3" fill="url(#id8)" cx="25" cy="29.3756" r="1.5"/>
  <circle fill="url(#id9)" cx="19.5566" cy="20.8991" r="9.2528"/>
  <path fill="url(#id10)" d="M19.5566 13.9856c4.1558,0 7.5284,3.1315 7.5835,7.0161 0,-0.0344 0.0025,-0.0682 0.0025,-0.1026 0,-4.1895 -3.3965,-7.5851 -7.5851,-7.5851 -4.1895,0 -7.586,3.3956 -7.586,7.5851 0,0.0344 0.0016,0.0682 0.0025,0.1026 0.0542,-3.8846 3.4268,-7.0161 7.5826,-7.0161z"/>
  <path fill="url(#id11)" d="M19.5566 13.9856c-4.1558,0 -7.5284,3.1315 -7.5835,7.0161 0.0009,0.0797 0.0024,0.1575 0.0058,0.2352 0.1773,4.0328 3.5016,7.2483 7.5777,7.2483 4.0761,0 7.4007,-3.2152 7.577,-7.2483 0.004,-0.0777 0.0059,-0.1558 0.0065,-0.2352 -0.0542,-3.8846 -3.4277,-7.0161 -7.5835,-7.0161z"/>
  <circle fill="url(#id12)" cx="19.5566" cy="14.7121" r="0.5789"/>
  <circle fill="url(#id13)" cx="19.5566" cy="20.8982" r="0.723"/>
  <circle fill="url(#id14)" cx="19.5566" cy="27.0852" r="0.5789"/>
  <circle fill="url(#id15)" cx="13.3696" cy="20.8991" r="0.578"/>
  <circle fill="url(#id16)" cx="25.7427" cy="20.8991" r="0.578"/>
  <path fill="url(#id17)" d="M17.1689 24.1044c-0.2256,0.2262 -0.5919,0.2262 -0.8185,0 -0.2262,-0.2257 -0.2262,-0.592 0,-0.8176l1.6752 -1.6752c0.2256,-0.2256 0.5919,-0.2256 0.8185,0 0.2262,0.2257 0.2262,0.592 0,0.8176l-1.6752 1.6752z"/>
  <path fill="url(#id18)" d="M14.7726 16.9333c-0.2256,-0.2262 -0.2256,-0.5929 0,-0.8191 0.2256,-0.2262 0.592,-0.2256 0.8185,0l3.253 3.2539c0.2262,0.2262 0.2262,0.592 0,0.8185 -0.2263,0.2256 -0.592,0.2256 -0.8185,-0.0009l-3.253 -3.2524z"/>
  <path fill="url(#id19)" d="M20.8948 20.5939c-0.1156,0.0474 -0.2467,-0.0081 -0.2928,-0.1222 -0.0475,-0.1156 0.008,-0.246 0.1221,-0.2928l4.2041 -1.7204c0.1147,-0.0468 0.2461,0.008 0.2919,0.123 0.0475,0.1147 -0.008,0.2452 -0.1221,0.2935l-4.2032 1.7189z"/>
  <path fill="url(#id20)" d="M27.1401 21.0014c-0.0009,0.0797 -0.0025,0.1574 -0.0065,0.2352 0.005,-0.0468 0.009,-0.0926 0.009,-0.14 0,-0.0329 -0.0025,-0.063 -0.0025,-0.0952z"/>
  <path fill="url(#id21)" d="M11.9709 21.0966c0,0.0474 0.004,0.0935 0.008,0.14 -0.0034,-0.0778 -0.0049,-0.1559 -0.0058,-0.2352 0.0003,0.0322 -0.0022,0.0623 -0.0022,0.0952z"/>
  <path fill="#F8A98E" d="M19.5566 12.357c3.8688,0 7.1577,2.3362 8.3732,5.5951 -1.2152,-3.4532 -4.5044,-5.9295 -8.3732,-5.9295 -3.8697,0 -7.1586,2.4772 -8.3739,5.9295 1.2153,-3.2589 4.5051,-5.5951 8.3739,-5.5951z"/>
  <path fill="#ECE9D7" d="M19.5566 27.8126c4.1558,0 7.5284,-3.1315 7.5835,-7.0161 0,0.0335 0.0025,0.0673 0.0025,0.1017 0,4.1896 -3.3965,7.586 -7.5851,7.586 -4.1895,0 -7.586,-3.3964 -7.586,-7.586 0,-0.0344 0.0016,-0.0682 0.0025,-0.1017 0.0542,3.8843 3.4268,7.0161 7.5826,7.0161z"/>
  <path fill="#E5E5E5" fill-opacity="0.149020" d="M19.4139 5.3228c7.2271,0.0522 11.9817,5.8096 12.3695,8.7122 0.3884,3.5824 -5.3968,6.9783 -12.1818,6.978 -6.7849,0 -12.6908,-4.1486 -12.3937,-6.978 0.2969,-2.829 5.3737,-8.7469 12.206,-8.7122l0 0z"/>
 </g>
</svg>
